<svg id="svg" version="1.1" xmlns="http://www.w3.org/2000/svg" xmlns:xlink="http://www.w3.org/1999/xlink" width="400" height="400" viewBox="0, 0, 400,400"><g id="svgg"><path id="path0" d="M194.003 73.477 C 193.563 73.518,191.719 73.658,189.905 73.787 C 188.091 73.916,186.472 74.040,186.307 74.061 C 186.142 74.083,185.377 74.171,184.608 74.257 C 183.838 74.342,183.065 74.439,182.889 74.470 C 182.713 74.502,182.092 74.589,181.509 74.663 C 180.497 74.791,180.254 74.831,179.110 75.053 C 178.836 75.106,178.251 75.199,177.811 75.260 C 177.179 75.347,173.417 76.102,170.815 76.665 C 166.737 77.547,158.431 80.094,155.222 81.446 C 154.893 81.585,154.308 81.813,153.923 81.952 C 153.538 82.092,152.933 82.334,152.578 82.490 C 152.223 82.646,151.593 82.894,151.179 83.041 C 150.483 83.288,149.669 83.652,146.427 85.169 C 142.519 86.998,142.146 87.189,137.931 89.516 C 136.510 90.301,136.018 90.586,135.432 90.963 C 135.102 91.175,134.653 91.441,134.433 91.554 C 134.213 91.667,133.763 91.938,133.433 92.155 C 133.103 92.371,132.541 92.702,132.184 92.888 C 131.827 93.075,131.534 93.301,131.534 93.390 C 131.534 93.480,131.440 93.553,131.325 93.553 C 131.130 93.553,128.154 95.475,127.936 95.743 C 127.881 95.810,127.386 96.152,126.837 96.502 C 126.287 96.853,125.594 97.345,125.297 97.595 C 124.634 98.154,124.107 98.557,123.523 98.951 C 122.773 99.456,120.052 101.586,119.840 101.834 C 119.730 101.962,119.452 102.198,119.221 102.358 C 118.759 102.679,117.012 104.156,115.452 105.546 C 113.516 107.270,106.785 114.012,105.521 115.493 C 104.821 116.314,104.100 117.133,103.920 117.313 C 103.608 117.625,101.555 120.119,100.803 121.100 C 100.609 121.352,100.282 121.757,100.077 121.999 C 99.635 122.520,97.588 125.222,97.094 125.937 C 96.904 126.212,96.324 127.066,95.806 127.836 C 95.287 128.606,94.793 129.265,94.708 129.302 C 94.623 129.339,94.553 129.496,94.553 129.652 C 94.553 129.808,94.463 129.935,94.353 129.935 C 94.243 129.935,94.153 130.025,94.153 130.136 C 94.153 130.246,93.762 130.898,93.284 131.585 C 92.806 132.272,92.117 133.373,91.753 134.033 C 91.389 134.693,90.859 135.592,90.576 136.032 C 90.292 136.472,89.945 137.056,89.804 137.331 C 89.664 137.606,89.270 138.326,88.928 138.931 C 85.564 144.887,82.045 152.906,79.587 160.220 C 78.090 164.674,75.777 173.807,75.259 177.311 C 75.202 177.696,75.114 178.236,75.062 178.511 C 74.753 180.172,74.211 184.125,74.049 185.907 C 73.994 186.512,73.906 187.271,73.853 187.594 C 73.801 187.916,73.707 189.176,73.645 190.392 C 73.583 191.609,73.492 192.731,73.441 192.887 C 73.315 193.280,73.344 206.657,73.473 207.396 C 73.639 208.344,74.083 209.147,74.799 209.795 C 76.232 211.091,74.109 210.990,100.859 211.044 L 125.257 211.094 126.324 210.545 C 127.905 209.731,128.436 208.875,128.836 206.497 C 128.934 205.914,129.606 202.552,129.835 201.499 C 130.713 197.467,133.298 189.098,134.454 186.551 C 134.717 185.970,134.933 185.418,134.933 185.324 C 134.933 185.160,135.733 183.298,136.530 181.609 C 138.069 178.347,138.829 176.814,139.552 175.512 C 140.010 174.688,140.555 173.698,140.764 173.313 C 140.972 172.929,141.318 172.344,141.533 172.014 C 141.749 171.684,141.986 171.279,142.060 171.114 C 142.134 170.950,142.435 170.455,142.729 170.015 C 143.022 169.575,143.882 168.271,144.640 167.116 C 145.398 165.962,146.133 164.899,146.273 164.753 C 146.412 164.608,146.527 164.428,146.527 164.354 C 146.527 164.279,146.730 163.979,146.977 163.687 C 147.224 163.395,147.561 162.957,147.726 162.714 C 147.891 162.472,148.316 161.946,148.671 161.546 C 149.026 161.147,149.318 160.757,149.321 160.680 C 149.323 160.603,149.561 160.288,149.849 159.980 C 150.137 159.672,150.609 159.111,150.899 158.732 C 151.188 158.354,151.604 157.849,151.824 157.611 C 152.044 157.372,152.809 156.520,153.523 155.717 C 156.141 152.777,161.187 147.837,163.524 145.927 C 164.362 145.242,165.118 144.603,165.717 144.074 C 165.882 143.928,166.242 143.663,166.517 143.484 C 166.792 143.305,167.278 142.927,167.597 142.644 C 167.917 142.361,168.232 142.127,168.297 142.125 C 168.362 142.123,168.775 141.808,169.213 141.425 C 169.652 141.043,170.073 140.730,170.148 140.730 C 170.224 140.730,170.405 140.616,170.550 140.477 C 170.696 140.338,171.804 139.574,173.013 138.779 C 174.223 137.983,175.320 137.244,175.451 137.135 C 175.582 137.026,176.032 136.750,176.450 136.521 C 176.869 136.292,177.481 135.931,177.811 135.718 C 178.141 135.505,178.681 135.193,179.010 135.023 C 179.340 134.853,180.240 134.359,181.009 133.925 C 182.690 132.976,187.507 130.627,189.205 129.928 C 189.425 129.837,190.145 129.537,190.805 129.260 C 191.464 128.984,192.634 128.524,193.403 128.238 C 194.173 127.952,195.252 127.549,195.802 127.343 C 198.719 126.248,206.365 124.106,208.996 123.647 C 209.325 123.589,209.820 123.493,210.095 123.432 C 212.163 122.976,216.677 122.301,219.390 122.041 C 220.050 121.978,220.995 121.875,221.489 121.812 C 221.984 121.750,225.177 121.664,228.586 121.623 C 235.155 121.543,237.589 121.666,243.178 122.359 C 244.557 122.530,245.649 122.703,248.776 123.244 C 249.105 123.301,249.870 123.451,250.475 123.578 C 251.079 123.705,251.664 123.827,251.774 123.850 C 251.884 123.873,252.334 123.988,252.774 124.106 C 253.213 124.224,253.888 124.373,254.273 124.438 C 254.658 124.502,255.242 124.642,255.572 124.748 C 255.902 124.855,257.529 125.337,259.188 125.819 C 262.298 126.722,266.043 128.032,268.666 129.132 C 269.490 129.478,270.490 129.882,270.888 130.030 C 271.286 130.177,271.781 130.391,271.988 130.504 C 272.195 130.616,273.668 131.344,275.262 132.121 C 276.857 132.898,278.701 133.844,279.360 134.224 C 280.020 134.604,280.749 135.002,280.981 135.108 C 281.692 135.434,283.554 136.607,283.625 136.774 C 283.662 136.861,283.780 136.932,283.888 136.932 C 283.996 136.932,284.379 137.156,284.740 137.431 C 285.100 137.706,285.499 137.931,285.626 137.931 C 285.753 137.931,285.857 138.000,285.857 138.085 C 285.857 138.170,286.262 138.460,286.757 138.731 C 287.251 139.001,287.656 139.291,287.656 139.376 C 287.656 139.461,287.784 139.530,287.939 139.530 C 288.095 139.530,288.253 139.598,288.289 139.680 C 288.357 139.832,288.780 140.148,290.058 141.004 C 290.444 141.263,291.343 141.932,292.057 142.492 C 292.770 143.052,293.560 143.672,293.813 143.869 C 294.065 144.066,294.479 144.408,294.732 144.628 C 294.985 144.848,295.453 145.245,295.772 145.512 C 299.527 148.648,305.232 154.317,308.146 157.809 C 308.586 158.336,309.150 159.004,309.399 159.294 C 309.649 159.583,309.968 159.955,310.108 160.120 C 310.249 160.285,310.510 160.645,310.689 160.920 C 310.868 161.194,311.244 161.689,311.525 162.019 C 312.253 162.873,312.261 162.884,313.228 164.318 C 313.710 165.032,314.160 165.662,314.228 165.717 C 314.296 165.772,314.754 166.447,315.246 167.216 C 315.738 167.986,316.208 168.646,316.291 168.682 C 316.374 168.719,316.442 168.837,316.442 168.946 C 316.442 169.054,316.667 169.437,316.942 169.797 C 317.216 170.158,317.441 170.521,317.441 170.605 C 317.441 170.688,317.720 171.170,318.061 171.675 C 318.402 172.180,318.766 172.778,318.869 173.003 C 318.973 173.229,319.326 173.863,319.655 174.413 C 319.983 174.963,320.574 176.087,320.968 176.912 C 321.817 178.689,322.339 179.310,322.983 179.310 C 323.587 179.310,324.632 178.777,324.657 178.456 C 324.690 178.045,324.607 176.673,324.524 176.230 C 324.480 176.000,324.395 175.542,324.333 175.212 C 324.229 174.650,324.124 174.167,323.645 172.064 C 323.420 171.077,322.566 167.650,322.034 165.596 C 321.141 162.150,318.688 155.217,316.736 150.625 C 314.917 146.345,311.945 140.318,310.329 137.631 C 310.064 137.191,309.710 136.562,309.540 136.232 C 309.371 135.902,309.055 135.362,308.837 135.032 C 308.619 134.703,308.387 134.275,308.320 134.083 C 308.254 133.891,308.133 133.733,308.053 133.733 C 307.973 133.733,307.745 133.373,307.546 132.934 C 307.348 132.494,307.109 132.134,307.016 132.134 C 306.923 132.134,306.847 132.053,306.847 131.955 C 306.847 131.813,305.022 128.992,304.304 128.025 C 304.218 127.909,304.034 127.639,303.895 127.425 C 303.271 126.465,302.912 125.955,302.410 125.320 C 302.114 124.945,301.201 123.738,300.381 122.639 C 299.562 121.539,298.635 120.352,298.321 120.001 C 298.008 119.650,297.481 119.027,297.151 118.618 C 293.889 114.568,286.891 107.479,282.659 103.936 C 281.944 103.338,281.314 102.795,281.259 102.730 C 281.204 102.665,280.727 102.284,280.199 101.884 C 279.671 101.484,279.112 101.042,278.957 100.903 C 278.000 100.044,274.453 97.351,274.278 97.351 C 274.201 97.351,273.964 97.194,273.751 97.001 C 273.538 96.809,272.959 96.382,272.464 96.052 C 271.969 95.722,271.534 95.385,271.498 95.302 C 271.461 95.220,271.345 95.152,271.239 95.152 C 271.134 95.152,270.855 94.973,270.619 94.753 C 270.383 94.533,269.937 94.241,269.628 94.104 C 269.318 93.967,269.065 93.787,269.065 93.704 C 269.065 93.621,268.962 93.553,268.834 93.553 C 268.707 93.553,268.309 93.328,267.948 93.053 C 267.588 92.779,267.197 92.554,267.080 92.554 C 266.963 92.554,266.867 92.464,266.867 92.354 C 266.867 92.244,266.781 92.154,266.677 92.154 C 266.572 92.154,266.093 91.888,265.611 91.563 C 265.130 91.238,264.293 90.740,263.752 90.456 C 263.211 90.172,262.319 89.678,261.769 89.359 C 260.836 88.816,252.504 84.644,251.174 84.054 C 247.600 82.467,241.303 80.076,238.209 79.132 C 235.728 78.375,230.527 76.952,229.200 76.668 C 225.833 75.946,222.808 75.343,222.089 75.251 C 221.594 75.188,221.054 75.099,220.890 75.054 C 220.725 75.009,220.230 74.919,219.790 74.855 C 219.350 74.790,218.766 74.700,218.491 74.654 C 218.216 74.608,217.496 74.519,216.892 74.457 C 216.287 74.394,215.567 74.303,215.292 74.255 C 215.017 74.206,214.298 74.120,213.693 74.064 C 213.088 74.008,211.649 73.869,210.495 73.756 C 208.408 73.551,195.531 73.333,194.003 73.477 M226.587 137.735 C 223.857 137.872,220.739 138.108,220.106 138.226 C 219.932 138.258,219.295 138.347,218.691 138.424 C 211.762 139.307,203.474 141.534,196.469 144.397 C 194.035 145.392,187.149 148.848,185.407 149.949 C 184.968 150.227,184.295 150.628,183.912 150.840 C 183.529 151.051,182.788 151.517,182.265 151.874 C 181.742 152.231,181.223 152.524,181.111 152.524 C 181.000 152.524,180.910 152.603,180.910 152.700 C 180.910 152.797,180.752 152.930,180.560 152.994 C 180.214 153.111,178.585 154.233,177.811 154.889 C 177.591 155.076,177.096 155.447,176.712 155.715 C 176.327 155.983,175.967 156.260,175.912 156.329 C 175.857 156.399,175.664 156.538,175.484 156.639 C 175.164 156.817,174.783 157.127,171.831 159.614 C 168.949 162.042,163.810 167.269,161.819 169.798 C 161.489 170.217,161.076 170.707,160.902 170.887 C 160.550 171.249,159.189 173.007,158.721 173.704 C 158.556 173.949,158.216 174.389,157.966 174.681 C 157.716 174.973,157.132 175.797,156.668 176.512 C 156.204 177.226,155.756 177.841,155.673 177.878 C 155.590 177.914,155.522 178.028,155.522 178.130 C 155.522 178.232,155.207 178.763,154.823 179.310 C 154.438 179.858,154.123 180.361,154.123 180.429 C 154.123 180.496,153.871 180.925,153.564 181.380 C 153.256 181.836,152.940 182.344,152.862 182.509 C 152.783 182.674,152.484 183.213,152.199 183.708 C 151.621 184.707,149.006 189.898,148.371 191.304 C 147.747 192.688,147.262 193.841,146.752 195.152 C 146.655 195.400,146.465 195.872,146.329 196.202 C 142.714 204.966,142.598 209.053,145.918 210.655 C 146.940 211.148,174.832 211.354,177.358 210.887 C 179.727 210.449,182.514 208.580,183.395 206.839 C 183.573 206.486,183.802 206.062,183.903 205.897 C 184.004 205.732,184.339 205.162,184.647 204.630 C 184.955 204.098,185.364 203.423,185.555 203.131 C 185.746 202.838,185.967 202.464,186.045 202.299 C 186.124 202.134,186.430 201.639,186.726 201.199 C 187.022 200.760,187.459 200.040,187.698 199.600 C 187.938 199.160,188.306 198.531,188.516 198.201 C 188.727 197.871,188.994 197.385,189.109 197.120 C 189.225 196.856,189.568 196.271,189.871 195.821 C 190.175 195.371,190.490 194.868,190.572 194.703 C 190.747 194.349,191.015 193.909,191.765 192.747 C 192.068 192.276,192.500 191.557,192.724 191.148 C 192.948 190.739,193.303 190.135,193.514 189.805 C 193.725 189.475,193.985 189.007,194.091 188.765 C 194.198 188.523,194.535 187.939,194.840 187.466 C 195.584 186.312,195.859 185.863,196.032 185.515 C 196.793 183.986,199.295 180.938,200.551 180.010 C 201.625 179.216,203.842 178.166,204.998 177.904 C 205.547 177.780,206.177 177.619,206.397 177.547 C 206.617 177.475,228.701 177.392,255.472 177.363 L 304.148 177.309 304.493 176.860 C 305.144 176.016,304.492 174.690,302.071 171.933 C 301.839 171.669,301.647 171.399,301.644 171.334 C 301.641 171.268,301.304 170.845,300.894 170.394 C 300.485 169.943,299.658 168.998,299.057 168.295 C 297.685 166.691,292.551 161.548,290.955 160.178 C 290.295 159.612,289.530 158.955,289.255 158.718 C 288.981 158.481,288.499 158.092,288.185 157.854 C 287.871 157.616,287.377 157.208,287.086 156.947 C 286.795 156.687,286.332 156.327,286.057 156.149 C 285.485 155.779,285.347 155.674,284.658 155.094 C 284.091 154.617,278.120 150.657,277.661 150.453 C 277.496 150.380,277.091 150.148,276.762 149.937 C 275.047 148.842,265.950 144.328,265.457 144.328 C 265.350 144.328,265.106 144.245,264.915 144.145 C 261.623 142.409,250.099 139.252,244.778 138.629 C 244.228 138.565,243.553 138.471,243.278 138.421 C 243.003 138.371,242.419 138.290,241.979 138.239 C 241.539 138.189,240.769 138.101,240.267 138.043 C 238.918 137.889,231.543 137.532,230.385 137.566 C 229.835 137.582,228.126 137.658,226.587 137.735 M235.325 191.304 C 214.053 191.414,215.502 191.322,215.495 192.558 C 215.494 192.862,215.721 193.474,216.001 193.917 C 216.280 194.360,216.596 194.920,216.703 195.162 C 216.810 195.404,217.070 195.872,217.281 196.202 C 217.491 196.532,217.859 197.161,218.099 197.601 C 218.338 198.041,218.794 198.788,219.112 199.260 C 219.430 199.733,219.690 200.153,219.690 200.192 C 219.690 200.232,220.007 200.745,220.395 201.332 C 220.782 201.919,221.283 202.759,221.507 203.198 C 221.732 203.638,222.083 204.268,222.288 204.598 C 222.493 204.928,222.844 205.532,223.068 205.941 C 223.292 206.349,223.724 207.069,224.027 207.540 C 224.813 208.758,225.053 209.154,225.210 209.495 C 225.286 209.660,225.460 209.930,225.597 210.095 C 227.968 212.946,228.531 217.956,226.780 220.628 C 226.321 221.329,224.226 223.488,224.005 223.488 C 223.903 223.488,223.678 223.617,223.504 223.774 C 223.330 223.931,222.518 224.245,221.698 224.472 L 220.207 224.885 159.465 224.887 C 120.987 224.888,98.590 224.959,98.363 225.081 C 97.650 225.463,97.830 227.686,98.574 227.686 C 98.650 227.686,98.881 227.954,99.088 228.280 C 99.295 228.607,100.270 229.743,101.256 230.804 C 102.242 231.864,103.115 232.846,103.196 232.985 C 103.491 233.492,110.613 239.969,111.327 240.380 C 111.518 240.490,111.803 240.690,111.959 240.825 C 113.330 242.007,114.339 242.797,115.027 243.227 C 115.475 243.508,115.887 243.796,115.942 243.868 C 116.137 244.120,120.353 246.877,120.545 246.877 C 120.652 246.877,120.740 246.967,120.740 247.076 C 120.740 247.186,120.845 247.276,120.974 247.276 C 121.103 247.276,121.350 247.404,121.523 247.560 C 121.697 247.717,122.289 248.083,122.839 248.374 C 123.388 248.665,124.468 249.259,125.237 249.693 C 126.979 250.677,129.358 251.828,132.584 253.247 C 133.051 253.453,133.860 253.813,134.381 254.047 C 134.902 254.281,135.449 254.473,135.597 254.473 C 135.744 254.473,135.924 254.531,135.995 254.602 C 136.201 254.808,140.170 256.194,142.429 256.848 C 144.226 257.369,148.448 258.448,149.225 258.586 C 149.555 258.645,150.209 258.778,150.678 258.883 C 151.148 258.988,151.867 259.122,152.278 259.180 C 152.688 259.238,153.248 259.330,153.523 259.383 C 154.182 259.510,154.809 259.607,156.022 259.767 C 157.955 260.022,158.894 260.124,161.819 260.396 C 163.702 260.571,173.015 260.570,175.012 260.395 C 177.137 260.209,181.337 259.707,182.709 259.476 C 183.313 259.374,184.123 259.245,184.508 259.188 C 185.256 259.079,188.746 258.352,189.905 258.065 C 194.454 256.939,198.566 255.618,202.299 254.084 C 202.904 253.835,203.578 253.559,203.798 253.469 C 205.660 252.711,210.272 250.464,211.794 249.573 C 212.454 249.187,213.263 248.736,213.593 248.571 C 214.298 248.217,214.521 248.081,216.459 246.827 C 217.265 246.304,218.007 245.877,218.108 245.877 C 218.208 245.877,218.291 245.787,218.291 245.677 C 218.291 245.567,218.426 245.477,218.591 245.477 C 218.756 245.477,218.891 245.387,218.891 245.277 C 218.891 245.167,218.983 245.077,219.096 245.077 C 219.331 245.077,223.304 242.227,224.776 241.002 C 225.319 240.550,225.949 240.029,226.175 239.844 C 231.383 235.589,237.142 229.533,240.780 224.488 C 241.216 223.883,241.732 223.214,241.926 223.001 C 242.120 222.788,242.279 222.547,242.279 222.465 C 242.279 222.384,242.393 222.199,242.531 222.053 C 242.879 221.690,244.878 218.708,244.878 218.554 C 244.878 218.485,245.088 218.150,245.346 217.810 C 245.775 217.243,246.129 216.648,247.377 214.393 C 251.048 207.762,254.199 200.027,255.911 193.442 C 256.194 192.352,255.914 191.550,255.172 191.325 C 254.953 191.259,246.021 191.249,235.325 191.304 M273.523 191.320 C 271.822 191.671,270.443 192.961,270.174 194.452 C 269.572 197.789,267.349 205.602,265.980 209.195 C 265.687 209.965,265.306 211.000,265.134 211.494 C 264.769 212.540,264.042 214.247,263.006 216.492 C 261.729 219.257,260.619 221.502,259.892 222.789 C 259.457 223.558,258.960 224.458,258.787 224.788 C 258.613 225.117,258.293 225.657,258.074 225.987 C 257.856 226.317,257.584 226.767,257.470 226.987 C 257.356 227.206,256.995 227.791,256.666 228.286 C 256.338 228.781,256.014 229.343,255.947 229.535 C 255.880 229.728,255.746 229.885,255.649 229.885 C 255.552 229.885,255.472 229.979,255.472 230.093 C 255.472 230.330,254.650 231.550,254.423 231.651 C 254.340 231.687,254.273 231.804,254.273 231.909 C 254.273 232.015,254.182 232.209,254.071 232.342 C 253.477 233.051,252.674 234.154,252.673 234.260 C 252.673 234.328,252.471 234.622,252.224 234.914 C 251.976 235.206,251.639 235.644,251.474 235.886 C 248.362 240.468,238.272 250.750,233.040 254.673 C 232.820 254.838,232.358 255.206,232.012 255.492 C 231.667 255.777,230.890 256.354,230.285 256.773 C 229.680 257.191,229.140 257.589,229.085 257.655 C 228.996 257.763,227.323 258.878,222.975 261.725 C 222.198 262.234,221.344 262.749,221.076 262.868 C 220.809 262.988,220.140 263.345,219.590 263.662 C 217.754 264.720,211.327 267.872,209.395 268.661 C 209.175 268.751,208.681 268.962,208.296 269.130 C 207.273 269.575,206.200 269.962,202.299 271.293 C 194.809 273.848,187.486 275.428,179.110 276.295 C 175.249 276.695,159.661 276.599,158.928 276.170 C 158.869 276.136,158.208 276.046,157.460 275.971 C 156.712 275.896,155.947 275.806,155.761 275.771 C 155.575 275.735,155.017 275.651,154.523 275.584 C 154.028 275.517,153.432 275.424,153.199 275.378 C 152.965 275.333,152.426 275.241,151.999 275.175 C 151.372 275.078,150.281 274.879,149.725 274.759 C 149.670 274.747,149.085 274.626,148.426 274.490 C 145.890 273.966,144.367 273.580,140.730 272.536 C 137.719 271.673,133.111 270.065,131.004 269.142 C 130.658 268.990,130.315 268.866,130.242 268.866 C 129.896 268.866,120.561 264.286,119.040 263.371 C 118.601 263.106,118.061 262.793,117.841 262.676 C 117.621 262.559,117.171 262.287,116.842 262.072 C 116.512 261.856,115.892 261.475,115.465 261.225 C 113.843 260.274,111.663 258.814,111.578 258.621 C 111.541 258.538,111.383 258.471,111.228 258.471 C 111.072 258.471,110.945 258.387,110.945 258.284 C 110.945 258.182,110.780 258.046,110.580 257.982 C 110.379 257.919,110.042 257.706,109.830 257.511 C 109.619 257.315,108.816 256.693,108.046 256.127 C 107.276 255.562,106.509 254.981,106.341 254.836 C 106.173 254.691,105.543 254.171,104.942 253.680 C 102.447 251.645,99.281 248.739,96.623 246.045 C 92.620 241.987,92.800 242.186,89.960 238.676 C 89.027 237.524,88.173 236.480,88.060 236.356 C 87.948 236.232,87.721 235.929,87.556 235.682 C 87.391 235.435,87.159 235.131,87.039 235.005 C 86.920 234.879,86.605 234.447,86.339 234.044 C 86.074 233.641,85.148 232.248,84.281 230.949 C 81.322 226.512,80.683 225.482,80.070 224.171 C 78.592 221.006,75.053 221.973,75.754 225.349 C 75.876 225.936,76.021 226.679,76.077 227.001 C 76.132 227.323,76.223 227.736,76.278 227.920 C 76.333 228.104,76.413 228.419,76.455 228.620 C 76.562 229.131,77.449 232.669,77.947 234.567 C 78.862 238.057,81.861 246.530,83.270 249.605 C 83.428 249.952,83.558 250.288,83.558 250.351 C 83.558 250.673,87.383 258.471,88.570 260.570 C 89.005 261.339,89.472 262.194,89.608 262.469 C 89.744 262.744,90.147 263.416,90.505 263.963 C 90.862 264.511,91.154 265.034,91.154 265.126 C 91.154 265.219,91.379 265.589,91.654 265.949 C 91.929 266.310,92.154 266.669,92.154 266.749 C 92.154 266.828,92.379 267.188,92.654 267.548 C 92.929 267.909,93.153 268.263,93.153 268.336 C 93.153 268.453,95.383 271.849,95.798 272.364 C 95.887 272.474,96.465 273.283,97.084 274.163 C 97.703 275.042,98.264 275.807,98.331 275.862 C 98.397 275.917,98.699 276.322,99.001 276.762 C 99.303 277.201,99.819 277.876,100.148 278.261 C 100.476 278.646,100.856 279.091,100.992 279.250 C 101.128 279.409,101.556 279.958,101.944 280.471 C 103.604 282.666,107.842 287.292,111.183 290.555 C 114.766 294.056,115.066 294.326,119.840 298.351 C 120.361 298.791,121.834 299.933,123.113 300.889 C 124.391 301.845,125.533 302.710,125.650 302.811 C 125.767 302.912,126.052 303.096,126.284 303.220 C 126.516 303.344,126.825 303.563,126.971 303.707 C 127.375 304.105,132.155 307.246,132.357 307.246 C 132.454 307.246,132.534 307.320,132.534 307.411 C 132.534 307.501,132.916 307.776,133.383 308.021 C 133.851 308.267,134.503 308.641,134.833 308.853 C 135.162 309.066,135.612 309.333,135.832 309.447 C 136.052 309.561,136.592 309.868,137.031 310.129 C 138.361 310.918,139.467 311.501,143.228 313.390 C 146.451 315.009,147.899 315.698,149.825 316.532 C 150.155 316.675,151.054 317.067,151.824 317.404 C 152.594 317.741,153.628 318.164,154.123 318.344 C 156.207 319.102,162.889 321.372,163.718 321.604 C 168.837 323.038,175.494 324.591,178.011 324.939 C 178.451 324.999,179.000 325.090,179.231 325.140 C 180.053 325.317,184.865 325.964,186.707 326.146 C 187.421 326.217,188.276 326.307,188.606 326.347 C 192.728 326.846,208.684 326.840,211.194 326.338 C 211.414 326.294,212.314 326.204,213.193 326.138 C 214.073 326.072,214.973 325.982,215.192 325.937 C 215.412 325.892,215.997 325.813,216.492 325.761 C 216.987 325.709,217.976 325.575,218.691 325.464 C 219.405 325.353,220.350 325.208,220.790 325.143 C 222.346 324.912,224.284 324.536,227.986 323.745 C 233.764 322.511,241.321 320.148,247.476 317.651 C 249.474 316.840,250.022 316.605,252.224 315.615 C 253.475 315.052,259.869 311.847,261.269 311.081 C 261.874 310.750,262.819 310.239,263.368 309.946 C 263.918 309.653,264.510 309.286,264.683 309.130 C 264.857 308.973,265.071 308.846,265.159 308.846 C 265.247 308.846,265.824 308.501,266.443 308.079 C 267.061 307.657,267.659 307.275,267.772 307.229 C 268.135 307.082,274.515 302.755,275.125 302.242 C 275.706 301.752,276.258 301.327,276.672 301.049 C 276.918 300.885,277.502 300.435,277.971 300.050 C 278.439 299.665,279.033 299.194,279.291 299.003 C 283.493 295.894,291.186 288.514,295.717 283.247 C 296.137 282.759,296.638 282.179,296.831 281.959 C 297.118 281.632,299.358 278.870,300.317 277.661 C 301.319 276.397,302.426 274.890,302.617 274.528 C 302.743 274.290,302.959 273.975,303.097 273.829 C 303.235 273.683,303.618 273.158,303.947 272.664 C 304.277 272.169,304.598 271.719,304.660 271.664 C 304.937 271.421,306.047 269.672,306.047 269.479 C 306.047 269.362,306.137 269.265,306.247 269.265 C 306.357 269.265,306.447 269.182,306.447 269.081 C 306.447 268.980,306.861 268.283,307.367 267.532 C 307.873 266.781,308.369 265.987,308.469 265.767 C 308.569 265.547,308.808 265.128,308.998 264.835 C 309.420 264.189,310.523 262.284,310.716 261.869 C 310.793 261.704,311.259 260.850,311.752 259.970 C 313.490 256.869,316.049 251.387,317.631 247.376 C 317.978 246.497,318.336 245.597,318.426 245.377 C 318.517 245.157,318.694 244.721,318.821 244.408 C 319.881 241.778,323.029 231.411,323.337 229.536 C 323.396 229.179,323.586 228.279,323.759 227.537 C 324.175 225.761,324.226 225.515,324.351 224.688 C 324.409 224.303,324.496 223.874,324.543 223.734 C 324.590 223.595,324.768 222.605,324.940 221.535 C 325.111 220.465,325.288 219.365,325.333 219.090 C 325.378 218.816,325.470 218.186,325.537 217.691 C 325.605 217.196,325.692 216.567,325.731 216.292 C 325.770 216.017,325.865 215.162,325.941 214.393 C 326.017 213.623,326.107 212.851,326.140 212.677 C 326.174 212.504,326.265 211.379,326.343 210.179 C 326.421 208.978,326.512 207.726,326.545 207.396 C 326.727 205.579,326.631 195.024,326.426 194.258 C 326.234 193.544,325.329 192.409,324.194 191.457 C 324.066 191.350,274.034 191.214,273.523 191.320 " stroke="none" fill="#44b44c" fill-rule="evenodd"></path><path id="path1" d="M193.753 73.501 C 193.946 73.551,194.260 73.551,194.453 73.501 C 194.645 73.451,194.488 73.410,194.103 73.410 C 193.718 73.410,193.561 73.451,193.753 73.501 M205.547 73.501 C 205.740 73.551,206.054 73.551,206.247 73.501 C 206.439 73.451,206.282 73.410,205.897 73.410 C 205.512 73.410,205.355 73.451,205.547 73.501 M227.939 137.675 C 228.243 137.721,228.692 137.719,228.938 137.672 C 229.184 137.625,228.936 137.587,228.386 137.588 C 227.836 137.590,227.635 137.629,227.939 137.675 M233.336 137.675 C 233.640 137.721,234.090 137.719,234.336 137.672 C 234.581 137.625,234.333 137.587,233.783 137.588 C 233.233 137.590,233.032 137.629,233.336 137.675 M231.850 177.461 C 245.080 177.490,266.669 177.490,279.826 177.461 C 292.983 177.433,282.159 177.410,255.772 177.410 C 229.385 177.410,218.620 177.433,231.850 177.461 M225.922 191.254 C 231.163 191.284,239.799 191.284,245.112 191.254 C 250.425 191.225,246.137 191.200,235.582 191.200 C 225.027 191.200,220.680 191.225,225.922 191.254 M286.307 191.254 C 292.986 191.284,303.916 191.284,310.595 191.254 C 317.274 191.225,311.809 191.201,298.451 191.201 C 285.092 191.201,279.628 191.225,286.307 191.254 M73.246 200.200 C 73.246 202.179,73.276 202.961,73.312 201.939 C 73.349 200.916,73.349 199.297,73.312 198.341 C 73.276 197.384,73.246 198.221,73.246 200.200 M326.717 200.000 C 326.717 201.649,326.748 202.297,326.785 201.440 C 326.823 200.583,326.823 199.234,326.785 198.442 C 326.747 197.650,326.716 198.351,326.717 200.000 M165.170 260.613 C 165.474 260.659,165.924 260.658,166.170 260.610 C 166.416 260.563,166.167 260.525,165.617 260.527 C 165.067 260.528,164.866 260.567,165.170 260.613 M170.865 260.611 C 171.112 260.658,171.517 260.658,171.764 260.611 C 172.011 260.563,171.809 260.524,171.314 260.524 C 170.820 260.524,170.617 260.563,170.865 260.611 M194.553 326.774 C 194.745 326.825,195.060 326.825,195.252 326.774 C 195.445 326.724,195.287 326.683,194.903 326.683 C 194.518 326.683,194.360 326.724,194.553 326.774 " stroke="none" fill="#48b44c" fill-rule="evenodd"></path><path id="path2" d="M193.753 73.501 C 193.946 73.551,194.260 73.551,194.453 73.501 C 194.645 73.451,194.488 73.410,194.103 73.410 C 193.718 73.410,193.561 73.451,193.753 73.501 M205.547 73.501 C 205.740 73.551,206.054 73.551,206.247 73.501 C 206.439 73.451,206.282 73.410,205.897 73.410 C 205.512 73.410,205.355 73.451,205.547 73.501 M227.939 137.675 C 228.243 137.721,228.692 137.719,228.938 137.672 C 229.184 137.625,228.936 137.587,228.386 137.588 C 227.836 137.590,227.635 137.629,227.939 137.675 M233.336 137.675 C 233.640 137.721,234.090 137.719,234.336 137.672 C 234.581 137.625,234.333 137.587,233.783 137.588 C 233.233 137.590,233.032 137.629,233.336 137.675 M231.850 177.461 C 245.080 177.490,266.669 177.490,279.826 177.461 C 292.983 177.433,282.159 177.410,255.772 177.410 C 229.385 177.410,218.620 177.433,231.850 177.461 M225.922 191.254 C 231.163 191.284,239.799 191.284,245.112 191.254 C 250.425 191.225,246.137 191.200,235.582 191.200 C 225.027 191.200,220.680 191.225,225.922 191.254 M286.307 191.254 C 292.986 191.284,303.916 191.284,310.595 191.254 C 317.274 191.225,311.809 191.201,298.451 191.201 C 285.092 191.201,279.628 191.225,286.307 191.254 M73.246 200.200 C 73.246 202.179,73.276 202.961,73.312 201.939 C 73.349 200.916,73.349 199.297,73.312 198.341 C 73.276 197.384,73.246 198.221,73.246 200.200 M326.717 200.000 C 326.717 201.649,326.748 202.297,326.785 201.440 C 326.823 200.583,326.823 199.234,326.785 198.442 C 326.747 197.650,326.716 198.351,326.717 200.000 M165.170 260.613 C 165.474 260.659,165.924 260.658,166.170 260.610 C 166.416 260.563,166.167 260.525,165.617 260.527 C 165.067 260.528,164.866 260.567,165.170 260.613 M170.865 260.611 C 171.112 260.658,171.517 260.658,171.764 260.611 C 172.011 260.563,171.809 260.524,171.314 260.524 C 170.820 260.524,170.617 260.563,170.865 260.611 M194.553 326.774 C 194.745 326.825,195.060 326.825,195.252 326.774 C 195.445 326.724,195.287 326.683,194.903 326.683 C 194.518 326.683,194.360 326.724,194.553 326.774 " stroke="none" fill="#48b44c" fill-rule="evenodd"></path><path id="path3" d="M193.753 73.501 C 193.946 73.551,194.260 73.551,194.453 73.501 C 194.645 73.451,194.488 73.410,194.103 73.410 C 193.718 73.410,193.561 73.451,193.753 73.501 M205.547 73.501 C 205.740 73.551,206.054 73.551,206.247 73.501 C 206.439 73.451,206.282 73.410,205.897 73.410 C 205.512 73.410,205.355 73.451,205.547 73.501 M227.939 137.675 C 228.243 137.721,228.692 137.719,228.938 137.672 C 229.184 137.625,228.936 137.587,228.386 137.588 C 227.836 137.590,227.635 137.629,227.939 137.675 M233.336 137.675 C 233.640 137.721,234.090 137.719,234.336 137.672 C 234.581 137.625,234.333 137.587,233.783 137.588 C 233.233 137.590,233.032 137.629,233.336 137.675 M231.850 177.461 C 245.080 177.490,266.669 177.490,279.826 177.461 C 292.983 177.433,282.159 177.410,255.772 177.410 C 229.385 177.410,218.620 177.433,231.850 177.461 M225.922 191.254 C 231.163 191.284,239.799 191.284,245.112 191.254 C 250.425 191.225,246.137 191.200,235.582 191.200 C 225.027 191.200,220.680 191.225,225.922 191.254 M286.307 191.254 C 292.986 191.284,303.916 191.284,310.595 191.254 C 317.274 191.225,311.809 191.201,298.451 191.201 C 285.092 191.201,279.628 191.225,286.307 191.254 M73.246 200.200 C 73.246 202.179,73.276 202.961,73.312 201.939 C 73.349 200.916,73.349 199.297,73.312 198.341 C 73.276 197.384,73.246 198.221,73.246 200.200 M326.717 200.000 C 326.717 201.649,326.748 202.297,326.785 201.440 C 326.823 200.583,326.823 199.234,326.785 198.442 C 326.747 197.650,326.716 198.351,326.717 200.000 M165.170 260.613 C 165.474 260.659,165.924 260.658,166.170 260.610 C 166.416 260.563,166.167 260.525,165.617 260.527 C 165.067 260.528,164.866 260.567,165.170 260.613 M170.865 260.611 C 171.112 260.658,171.517 260.658,171.764 260.611 C 172.011 260.563,171.809 260.524,171.314 260.524 C 170.820 260.524,170.617 260.563,170.865 260.611 M194.553 326.774 C 194.745 326.825,195.060 326.825,195.252 326.774 C 195.445 326.724,195.287 326.683,194.903 326.683 C 194.518 326.683,194.360 326.724,194.553 326.774 " stroke="none" fill="#48b44c" fill-rule="evenodd"></path><path id="path4" d="M193.753 73.501 C 193.946 73.551,194.260 73.551,194.453 73.501 C 194.645 73.451,194.488 73.410,194.103 73.410 C 193.718 73.410,193.561 73.451,193.753 73.501 M205.547 73.501 C 205.740 73.551,206.054 73.551,206.247 73.501 C 206.439 73.451,206.282 73.410,205.897 73.410 C 205.512 73.410,205.355 73.451,205.547 73.501 M227.939 137.675 C 228.243 137.721,228.692 137.719,228.938 137.672 C 229.184 137.625,228.936 137.587,228.386 137.588 C 227.836 137.590,227.635 137.629,227.939 137.675 M233.336 137.675 C 233.640 137.721,234.090 137.719,234.336 137.672 C 234.581 137.625,234.333 137.587,233.783 137.588 C 233.233 137.590,233.032 137.629,233.336 137.675 M231.850 177.461 C 245.080 177.490,266.669 177.490,279.826 177.461 C 292.983 177.433,282.159 177.410,255.772 177.410 C 229.385 177.410,218.620 177.433,231.850 177.461 M225.922 191.254 C 231.163 191.284,239.799 191.284,245.112 191.254 C 250.425 191.225,246.137 191.200,235.582 191.200 C 225.027 191.200,220.680 191.225,225.922 191.254 M286.307 191.254 C 292.986 191.284,303.916 191.284,310.595 191.254 C 317.274 191.225,311.809 191.201,298.451 191.201 C 285.092 191.201,279.628 191.225,286.307 191.254 M73.246 200.200 C 73.246 202.179,73.276 202.961,73.312 201.939 C 73.349 200.916,73.349 199.297,73.312 198.341 C 73.276 197.384,73.246 198.221,73.246 200.200 M326.717 200.000 C 326.717 201.649,326.748 202.297,326.785 201.440 C 326.823 200.583,326.823 199.234,326.785 198.442 C 326.747 197.650,326.716 198.351,326.717 200.000 M165.170 260.613 C 165.474 260.659,165.924 260.658,166.170 260.610 C 166.416 260.563,166.167 260.525,165.617 260.527 C 165.067 260.528,164.866 260.567,165.170 260.613 M170.865 260.611 C 171.112 260.658,171.517 260.658,171.764 260.611 C 172.011 260.563,171.809 260.524,171.314 260.524 C 170.820 260.524,170.617 260.563,170.865 260.611 M194.553 326.774 C 194.745 326.825,195.060 326.825,195.252 326.774 C 195.445 326.724,195.287 326.683,194.903 326.683 C 194.518 326.683,194.360 326.724,194.553 326.774 " stroke="none" fill="#48b44c" fill-rule="evenodd"></path></g></svg>